{
  "asset": {
    "generator": "Khronos glTF Blender I/O v1.6.16",
    "version": "2.0"
  },
  "scene": 0,
  "scenes": [
    {
      "name": "Scene",
      "nodes": [
        0,
        1
      ]
    }
  ],
  "nodes": [
    {
      "mesh": 0,
      "name": "Этаж",
      "scale": [
        4,
        1,
        4
      ],
      "translation": [
        7.582603454589844,
        0,
        -10.852326393127441
      ]
    },
    {
      "mesh": 1,
      "name": "lab.011",
      "rotation": [
        0.7071068286895752,
        0,
        0,
        0.7071068286895752
      ],
      "scale": [
        0.2979242503643036,
        0.2979242503643036,
        0.2979242503643036
      ],
      "translation": [
        2.5288565158843994,
        0,
        -4
      ]
    }
  ],
  "materials": [
    {
      "doubleSided": true,
      "name": "Материал.001",
      "pbrMetallicRoughness": {
        "baseColorFactor": [
          1,
          0.07301197946071625,
          0.0027479911223053932,
          1
        ],
        "metallicFactor": 0,
        "roughnessFactor": 0.5
      }
    },
    {
      "doubleSided": true,
      "name": "Материал.002",
      "pbrMetallicRoughness": {
        "baseColorFactor": [
          0,
          0,
          0,
          1
        ],
        "metallicFactor": 0,
        "roughnessFactor": 0.5
      }
    },
    {
      "doubleSided": true,
      "name": "Материал",
      "pbrMetallicRoughness": {
        "baseColorFactor": [
          0.800000011920929,
          0.800000011920929,
          0.800000011920929,
          1
        ],
        "metallicFactor": 0,
        "roughnessFactor": 0.5
      }
    },
    {
      "doubleSided": true,
      "name": "white",
      "pbrMetallicRoughness": {
        "metallicFactor": 0,
        "roughnessFactor": 0.5
      }
    },
    {
      "doubleSided": true,
      "name": "selver",
      "pbrMetallicRoughness": {
        "baseColorFactor": [
          0.28827130794525146,
          0.315976083278656,
          0.38316845893859863,
          1
        ],
        "metallicFactor": 0,
        "roughnessFactor": 0.5
      }
    },
    {
      "doubleSided": true,
      "name": "black",
      "pbrMetallicRoughness": {
        "baseColorFactor": [
          0,
          0,
          0,
          1
        ],
        "metallicFactor": 0,
        "roughnessFactor": 0.5527864098548889
      }
    },
    {
      "doubleSided": true,
      "name": "blue",
      "pbrMetallicRoughness": {
        "baseColorFactor": [
          0.0007273114169947803,
          0,
          0.14157003164291382,
          1
        ],
        "metallicFactor": 0,
        "roughnessFactor": 0.5527864098548889
      }
    },
    {
      "doubleSided": true,
      "name": "red",
      "pbrMetallicRoughness": {
        "baseColorFactor": [
          0.8000000715255737,
          0,
          0.0015722118550911546,
          1
        ],
        "metallicFactor": 0,
        "roughnessFactor": 0.5
      }
    },
    {
      "doubleSided": true,
      "name": "стекло",
      "pbrMetallicRoughness": {
        "baseColorFactor": [
          0.800000011920929,
          0.800000011920929,
          0.800000011920929,
          1
        ],
        "metallicFactor": 0,
        "roughnessFactor": 0
      }
    },
    {
      "doubleSided": true,
      "name": "Книга",
      "pbrMetallicRoughness": {
        "baseColorFactor": [
          0.6266630291938782,
          0.5471100211143494,
          0.5132759809494019,
          1
        ],
        "metallicFactor": 0,
        "roughnessFactor": 0.5
      }
    },
    {
      "doubleSided": true,
      "name": "Выключатель",
      "pbrMetallicRoughness": {
        "baseColorFactor": [
          0.800000011920929,
          0.800000011920929,
          0.800000011920929,
          1
        ],
        "metallicFactor": 0,
        "roughnessFactor": 0.5
      }
    },
    {
      "doubleSided": true,
      "name": "байда_1",
      "pbrMetallicRoughness": {
        "baseColorFactor": [
          0.800000011920929,
          0.800000011920929,
          0.800000011920929,
          1
        ],
        "metallicFactor": 0,
        "roughnessFactor": 0.5
      }
    },
    {
      "doubleSided": true,
      "name": "розетки",
      "pbrMetallicRoughness": {
        "baseColorFactor": [
          0.800000011920929,
          0.800000011920929,
          0.800000011920929,
          1
        ],
        "metallicFactor": 0,
        "roughnessFactor": 0.5
      }
    }
  ],
  "meshes": [
    {
      "name": "Плоскость.002",
      "primitives": [
        {
          "attributes": {
            "POSITION": 0,
            "NORMAL": 1,
            "TEXCOORD_0": 2
          },
          "indices": 3,
          "material": 0
        },
        {
          "attributes": {
            "POSITION": 4,
            "NORMAL": 5,
            "TEXCOORD_0": 6
          },
          "indices": 7,
          "material": 1
        },
        {
          "attributes": {
            "POSITION": 8,
            "NORMAL": 9,
            "TEXCOORD_0": 10
          },
          "indices": 11,
          "material": 2
        }
      ]
    },
    {
      "name": "Cube.013_Cube.011",
      "primitives": [
        {
          "attributes": {
            "POSITION": 12,
            "NORMAL": 13,
            "TEXCOORD_0": 14
          },
          "indices": 15,
          "material": 3
        },
        {
          "attributes": {
            "POSITION": 16,
            "NORMAL": 17,
            "TEXCOORD_0": 18
          },
          "indices": 19,
          "material": 4
        },
        {
          "attributes": {
            "POSITION": 20,
            "NORMAL": 21,
            "TEXCOORD_0": 22
          },
          "indices": 23,
          "material": 5
        },
        {
          "attributes": {
            "POSITION": 24,
            "NORMAL": 25,
            "TEXCOORD_0": 26
          },
          "indices": 27,
          "material": 6
        },
        {
          "attributes": {
            "POSITION": 28,
            "NORMAL": 29,
            "TEXCOORD_0": 30
          },
          "indices": 31,
          "material": 7
        },
        {
          "attributes": {
            "POSITION": 32,
            "NORMAL": 33,
            "TEXCOORD_0": 34
          },
          "indices": 35,
          "material": 8
        },
        {
          "attributes": {
            "POSITION": 36,
            "NORMAL": 37,
            "TEXCOORD_0": 38
          },
          "indices": 39,
          "material": 9
        },
        {
          "attributes": {
            "POSITION": 40,
            "NORMAL": 41,
            "TEXCOORD_0": 42
          },
          "indices": 43,
          "material": 10
        },
        {
          "attributes": {
            "POSITION": 44,
            "NORMAL": 45,
            "TEXCOORD_0": 46
          },
          "indices": 47,
          "material": 11
        },
        {
          "attributes": {
            "POSITION": 48,
            "NORMAL": 49,
            "TEXCOORD_0": 50
          },
          "indices": 51,
          "material": 12
        }
      ]
    }
  ],
  "accessors": [
    {
      "bufferView": 0,
      "componentType": 5126,
      "count": 613,
      "max": [
        1,
        4,
        8
      ],
      "min": [
        -7.601527214050293,
        -0.25178003311157227,
        -1.000023603439331
      ],
      "type": "VEC3"
    },
    {
      "bufferView": 1,
      "componentType": 5126,
      "count": 613,
      "type": "VEC3"
    },
    {
      "bufferView": 2,
      "componentType": 5126,
      "count": 613,
      "type": "VEC2"
    },
    {
      "bufferView": 3,
      "componentType": 5123,
      "count": 1506,
      "type": "SCALAR"
    },
    {
      "bufferView": 4,
      "componentType": 5126,
      "count": 24,
      "max": [
        1,
        0,
        8
      ],
      "min": [
        -7.5,
        0,
        -1
      ],
      "type": "VEC3"
    },
    {
      "bufferView": 5,
      "componentType": 5126,
      "count": 24,
      "type": "VEC3"
    },
    {
      "bufferView": 6,
      "componentType": 5126,
      "count": 24,
      "type": "VEC2"
    },
    {
      "bufferView": 7,
      "componentType": 5123,
      "count": 42,
      "type": "SCALAR"
    },
    {
      "bufferView": 8,
      "componentType": 5126,
      "count": 44,
      "max": [
        1,
        4,
        7.99997615814209
      ],
      "min": [
        -7.601526737213135,
        -0.00593140721321106,
        -1.000023603439331
      ],
      "type": "VEC3"
    },
    {
      "bufferView": 9,
      "componentType": 5126,
      "count": 44,
      "type": "VEC3"
    },
    {
      "bufferView": 10,
      "componentType": 5126,
      "count": 44,
      "type": "VEC2"
    },
    {
      "bufferView": 11,
      "componentType": 5123,
      "count": 90,
      "type": "SCALAR"
    },
    {
      "bufferView": 12,
      "componentType": 5126,
      "count": 796,
      "max": [
        -3.951827049255371,
        4.423229217529297,
        -0.017136000096797943
      ],
      "min": [
        -8.501321792602539,
        -5.3634443283081055,
        -12.076148986816406
      ],
      "type": "VEC3"
    },
    {
      "bufferView": 13,
      "componentType": 5126,
      "count": 796,
      "type": "VEC3"
    },
    {
      "bufferView": 14,
      "componentType": 5126,
      "count": 796,
      "type": "VEC2"
    },
    {
      "bufferView": 15,
      "componentType": 5123,
      "count": 1314,
      "type": "SCALAR"
    },
    {
      "bufferView": 16,
      "componentType": 5126,
      "count": 15381,
      "max": [
        -3.948462963104248,
        2.012713670730591,
        -0.32883700728416443
      ],
      "min": [
        -6.750933647155762,
        -3.8827850818634033,
        -9.911177635192871
      ],
      "type": "VEC3"
    },
    {
      "bufferView": 17,
      "componentType": 5126,
      "count": 15381,
      "type": "VEC3"
    },
    {
      "bufferView": 18,
      "componentType": 5126,
      "count": 15381,
      "type": "VEC2"
    },
    {
      "bufferView": 19,
      "componentType": 5123,
      "count": 57996,
      "type": "SCALAR"
    },
    {
      "bufferView": 20,
      "componentType": 5126,
      "count": 268396,
      "max": [
        0.2655527889728546,
        1.2929165363311768,
        0.009553893469274044
      ],
      "min": [
        -8.07301139831543,
        -3.2481839656829834,
        -9.991655349731445
      ],
      "type": "VEC3"
    },
    {
      "bufferView": 21,
      "componentType": 5126,
      "count": 268396,
      "type": "VEC3"
    },
    {
      "bufferView": 22,
      "componentType": 5126,
      "count": 268396,
      "type": "VEC2"
    },
    {
      "bufferView": 23,
      "componentType": 5125,
      "count": 907941,
      "type": "SCALAR"
    },
    {
      "bufferView": 24,
      "componentType": 5126,
      "count": 14068,
      "max": [
        0.2678721845149994,
        1.2764718532562256,
        -1.8762494325637817
      ],
      "min": [
        -2.71368670463562,
        -1.650457501411438,
        -5.7017998695373535
      ],
      "type": "VEC3"
    },
    {
      "bufferView": 25,
      "componentType": 5126,
      "count": 14068,
      "type": "VEC3"
    },
    {
      "bufferView": 26,
      "componentType": 5126,
      "count": 14068,
      "type": "VEC2"
    },
    {
      "bufferView": 27,
      "componentType": 5123,
      "count": 72564,
      "type": "SCALAR"
    },
    {
      "bufferView": 28,
      "componentType": 5126,
      "count": 192,
      "max": [
        -6.664218902587891,
        1.284709095954895,
        -9.871085166931152
      ],
      "min": [
        -6.762966156005859,
        1.1087501049041748,
        -10.050469398498535
      ],
      "type": "VEC3"
    },
    {
      "bufferView": 29,
      "componentType": 5126,
      "count": 192,
      "type": "VEC3"
    },
    {
      "bufferView": 30,
      "componentType": 5126,
      "count": 192,
      "type": "VEC2"
    },
    {
      "bufferView": 31,
      "componentType": 5123,
      "count": 372,
      "type": "SCALAR"
    },
    {
      "bufferView": 32,
      "componentType": 5126,
      "count": 3032,
      "max": [
        -0.11466646194458008,
        2.0119471549987793,
        -1.574273705482483
      ],
      "min": [
        -6.375125408172607,
        -2.355073928833008,
        -8.84009075164795
      ],
      "type": "VEC3"
    },
    {
      "bufferView": 33,
      "componentType": 5126,
      "count": 3032,
      "type": "VEC3"
    },
    {
      "bufferView": 34,
      "componentType": 5126,
      "count": 3032,
      "type": "VEC2"
    },
    {
      "bufferView": 35,
      "componentType": 5123,
      "count": 13239,
      "type": "SCALAR"
    },
    {
      "bufferView": 36,
      "componentType": 5126,
      "count": 27505,
      "max": [
        -4.27601432800293,
        1.9179773330688477,
        -3.731273889541626
      ],
      "min": [
        -6.056228160858154,
        -2.3565168380737305,
        -3.914222002029419
      ],
      "type": "VEC3"
    },
    {
      "bufferView": 37,
      "componentType": 5126,
      "count": 27505,
      "type": "VEC3"
    },
    {
      "bufferView": 38,
      "componentType": 5126,
      "count": 27505,
      "type": "VEC2"
    },
    {
      "bufferView": 39,
      "componentType": 5123,
      "count": 99441,
      "type": "SCALAR"
    },
    {
      "bufferView": 40,
      "componentType": 5126,
      "count": 7836,
      "max": [
        -5.773040294647217,
        -4.174392223358154,
        -4.362985134124756
      ],
      "min": [
        -5.895164966583252,
        -4.755184650421143,
        -6.545063495635986
      ],
      "type": "VEC3"
    },
    {
      "bufferView": 41,
      "componentType": 5126,
      "count": 7836,
      "type": "VEC3"
    },
    {
      "bufferView": 42,
      "componentType": 5126,
      "count": 7836,
      "type": "VEC2"
    },
    {
      "bufferView": 43,
      "componentType": 5123,
      "count": 11430,
      "type": "SCALAR"
    },
    {
      "bufferView": 44,
      "componentType": 5126,
      "count": 90900,
      "max": [
        -5.779420852661133,
        -1.543095350265503,
        -5.21185827255249
      ],
      "min": [
        -7.345999717712402,
        -3.4253523349761963,
        -6.252129554748535
      ],
      "type": "VEC3"
    },
    {
      "bufferView": 45,
      "componentType": 5126,
      "count": 90900,
      "type": "VEC3"
    },
    {
      "bufferView": 46,
      "componentType": 5126,
      "count": 90900,
      "type": "VEC2"
    },
    {
      "bufferView": 47,
      "componentType": 5125,
      "count": 507972,
      "type": "SCALAR"
    },
    {
      "bufferView": 48,
      "componentType": 5126,
      "count": 25326,
      "max": [
        -6.675848960876465,
        1.0566513538360596,
        -9.570798873901367
      ],
      "min": [
        -6.871404647827148,
        -0.40632307529449463,
        -9.897543907165527
      ],
      "type": "VEC3"
    },
    {
      "bufferView": 49,
      "componentType": 5126,
      "count": 25326,
      "type": "VEC3"
    },
    {
      "bufferView": 50,
      "componentType": 5126,
      "count": 25326,
      "type": "VEC2"
    },
    {
      "bufferView": 51,
      "componentType": 5123,
      "count": 145152,
      "type": "SCALAR"
    }
  ],
  "bufferViews": [
    {
      "buffer": 0,
      "byteLength": 7356,
      "byteOffset": 0
    },
    {
      "buffer": 0,
      "byteLength": 7356,
      "byteOffset": 7356
    },
    {
      "buffer": 0,
      "byteLength": 4904,
      "byteOffset": 14712
    },
    {
      "buffer": 0,
      "byteLength": 3012,
      "byteOffset": 19616
    },
    {
      "buffer": 0,
      "byteLength": 288,
      "byteOffset": 22628
    },
    {
      "buffer": 0,
      "byteLength": 288,
      "byteOffset": 22916
    },
    {
      "buffer": 0,
      "byteLength": 192,
      "byteOffset": 23204
    },
    {
      "buffer": 0,
      "byteLength": 84,
      "byteOffset": 23396
    },
    {
      "buffer": 0,
      "byteLength": 528,
      "byteOffset": 23480
    },
    {
      "buffer": 0,
      "byteLength": 528,
      "byteOffset": 24008
    },
    {
      "buffer": 0,
      "byteLength": 352,
      "byteOffset": 24536
    },
    {
      "buffer": 0,
      "byteLength": 180,
      "byteOffset": 24888
    },
    {
      "buffer": 0,
      "byteLength": 9552,
      "byteOffset": 25068
    },
    {
      "buffer": 0,
      "byteLength": 9552,
      "byteOffset": 34620
    },
    {
      "buffer": 0,
      "byteLength": 6368,
      "byteOffset": 44172
    },
    {
      "buffer": 0,
      "byteLength": 2628,
      "byteOffset": 50540
    },
    {
      "buffer": 0,
      "byteLength": 184572,
      "byteOffset": 53168
    },
    {
      "buffer": 0,
      "byteLength": 184572,
      "byteOffset": 237740
    },
    {
      "buffer": 0,
      "byteLength": 123048,
      "byteOffset": 422312
    },
    {
      "buffer": 0,
      "byteLength": 115992,
      "byteOffset": 545360
    },
    {
      "buffer": 0,
      "byteLength": 3220752,
      "byteOffset": 661352
    },
    {
      "buffer": 0,
      "byteLength": 3220752,
      "byteOffset": 3882104
    },
    {
      "buffer": 0,
      "byteLength": 2147168,
      "byteOffset": 7102856
    },
    {
      "buffer": 0,
      "byteLength": 3631764,
      "byteOffset": 9250024
    },
    {
      "buffer": 0,
      "byteLength": 168816,
      "byteOffset": 12881788
    },
    {
      "buffer": 0,
      "byteLength": 168816,
      "byteOffset": 13050604
    },
    {
      "buffer": 0,
      "byteLength": 112544,
      "byteOffset": 13219420
    },
    {
      "buffer": 0,
      "byteLength": 145128,
      "byteOffset": 13331964
    },
    {
      "buffer": 0,
      "byteLength": 2304,
      "byteOffset": 13477092
    },
    {
      "buffer": 0,
      "byteLength": 2304,
      "byteOffset": 13479396
    },
    {
      "buffer": 0,
      "byteLength": 1536,
      "byteOffset": 13481700
    },
    {
      "buffer": 0,
      "byteLength": 744,
      "byteOffset": 13483236
    },
    {
      "buffer": 0,
      "byteLength": 36384,
      "byteOffset": 13483980
    },
    {
      "buffer": 0,
      "byteLength": 36384,
      "byteOffset": 13520364
    },
    {
      "buffer": 0,
      "byteLength": 24256,
      "byteOffset": 13556748
    },
    {
      "buffer": 0,
      "byteLength": 26480,
      "byteOffset": 13581004
    },
    {
      "buffer": 0,
      "byteLength": 330060,
      "byteOffset": 13607484
    },
    {
      "buffer": 0,
      "byteLength": 330060,
      "byteOffset": 13937544
    },
    {
      "buffer": 0,
      "byteLength": 220040,
      "byteOffset": 14267604
    },
    {
      "buffer": 0,
      "byteLength": 198884,
      "byteOffset": 14487644
    },
    {
      "buffer": 0,
      "byteLength": 94032,
      "byteOffset": 14686528
    },
    {
      "buffer": 0,
      "byteLength": 94032,
      "byteOffset": 14780560
    },
    {
      "buffer": 0,
      "byteLength": 62688,
      "byteOffset": 14874592
    },
    {
      "buffer": 0,
      "byteLength": 22860,
      "byteOffset": 14937280
    },
    {
      "buffer": 0,
      "byteLength": 1090800,
      "byteOffset": 14960140
    },
    {
      "buffer": 0,
      "byteLength": 1090800,
      "byteOffset": 16050940
    },
    {
      "buffer": 0,
      "byteLength": 727200,
      "byteOffset": 17141740
    },
    {
      "buffer": 0,
      "byteLength": 2031888,
      "byteOffset": 17868940
    },
    {
      "buffer": 0,
      "byteLength": 303912,
      "byteOffset": 19900828
    },
    {
      "buffer": 0,
      "byteLength": 303912,
      "byteOffset": 20204740
    },
    {
      "buffer": 0,
      "byteLength": 202608,
      "byteOffset": 20508652
    },
    {
      "buffer": 0,
      "byteLength": 290304,
      "byteOffset": 20711260
    }
  ],
  "buffers": [
    {
      "uri": "skhema (3)_data.bin",
      "byteLength": 21001564
    }
  ]
}